<svg width="8" height="8" viewBox="0 0 8 8" fill="none" xmlns="http://www.w3.org/2000/svg">
<rect x="0.154419" width="1.38452" height="7.52941" rx="0.692258" fill="url(#paint0_linear)"/>
<rect width="1.39491" height="5.7208" rx="0.697454" transform="matrix(0.782141 0.623102 -0.608201 0.793783 3.4794 2.57362)" fill="url(#paint1_linear)"/>
<rect width="1.38452" height="7.52941" rx="0.692258" transform="matrix(-1 0 0 1 7.077 0)" fill="url(#paint2_linear)"/>
<rect width="1.39354" height="5.56677" rx="0.69677" transform="matrix(-0.813848 0.581078 0.566077 0.824352 3.73593 2.5023)" fill="url(#paint3_linear)"/>
<ellipse cx="6.38474" cy="6.35294" rx="1.61527" ry="1.64706" fill="#1EE054"/>
<path d="M5.91904 6.253V6.069H6.22704V6.8H6.02204V6.253H5.91904ZM6.32676 6.424C6.32676 6.30933 6.35009 6.219 6.39676 6.153C6.44342 6.087 6.51676 6.054 6.61676 6.054C6.71676 6.054 6.79009 6.087 6.83676 6.153C6.88409 6.219 6.90776 6.30933 6.90776 6.424C6.90776 6.54 6.88442 6.631 6.83776 6.697C6.79109 6.763 6.71742 6.796 6.61676 6.796C6.51609 6.796 6.44242 6.763 6.39576 6.697C6.34976 6.631 6.32676 6.54 6.32676 6.424ZM6.71376 6.424C6.71376 6.364 6.70742 6.31833 6.69476 6.287C6.68209 6.255 6.65609 6.239 6.61676 6.239C6.57742 6.239 6.55142 6.255 6.53876 6.287C6.52609 6.31833 6.51976 6.364 6.51976 6.424C6.51976 6.48533 6.52576 6.532 6.53776 6.564C6.55042 6.59533 6.57676 6.611 6.61676 6.611C6.65676 6.611 6.68276 6.59533 6.69476 6.564C6.70742 6.532 6.71376 6.48533 6.71376 6.424Z" fill="white"/>
<defs>
<linearGradient id="paint0_linear" x1="0.846677" y1="0" x2="0.846677" y2="7.52941" gradientUnits="userSpaceOnUse">
<stop stop-color="#4E15F1" stop-opacity="0.74"/>
<stop offset="1" stop-color="#BAAD32"/>
</linearGradient>
<linearGradient id="paint1_linear" x1="0.697454" y1="0" x2="0.697454" y2="5.7208" gradientUnits="userSpaceOnUse">
<stop stop-color="#4E15F1" stop-opacity="0.74"/>
<stop offset="1" stop-color="#BAAD32"/>
</linearGradient>
<linearGradient id="paint2_linear" x1="0.692258" y1="0" x2="0.692258" y2="7.52941" gradientUnits="userSpaceOnUse">
<stop stop-color="#4E15F1" stop-opacity="0.74"/>
<stop offset="1" stop-color="#BAAD32"/>
</linearGradient>
<linearGradient id="paint3_linear" x1="0.69677" y1="0" x2="0.69677" y2="5.56677" gradientUnits="userSpaceOnUse">
<stop stop-color="#4E15F1" stop-opacity="0.74"/>
<stop offset="1" stop-color="#BAAD32"/>
</linearGradient>
</defs>
</svg>
